<svg width="124" height="116" viewBox="0 0 124 116" fill="none" xmlns="http://www.w3.org/2000/svg">
<g clip-path="url(#clip0_9_72)">
<path d="M62 27.3008C43.905 27.3008 29.1836 41.0724 29.1836 58C29.1836 74.9276 43.905 88.6992 62 88.6992C80.095 88.6992 94.8164 74.9276 94.8164 58C94.8164 41.0724 80.095 27.3008 62 27.3008ZM73.7076 54.3116L61.7598 66.3194C61.0879 66.9945 60.1516 67.3853 59.1657 67.4019C59.1441 67.4021 59.1223 67.4023 59.1005 67.4023C58.1381 67.4023 57.2136 67.0448 56.5319 66.4068L50.383 60.6546C48.9643 59.3277 48.9643 57.1758 50.383 55.8486C51.8017 54.5216 54.102 54.5216 55.5205 55.8486L59.007 59.1102L68.3896 49.6806C69.7568 48.3067 72.0554 48.2297 73.524 49.5084C74.9921 50.7874 75.0745 52.9377 73.7076 54.3116Z" fill="black"/>
<path d="M120.367 54.6016H115.538C114.677 42.4721 109.219 31.1793 99.9445 22.5033C90.6704 13.8276 78.5988 8.7213 65.6328 7.91587V3.39844C65.6328 1.52159 64.0063 0 62 0C59.9937 0 58.3672 1.52159 58.3672 3.39844V7.91587C45.4012 8.72152 33.3296 13.8278 24.0553 22.5035C14.7812 31.1793 9.32277 42.4721 8.46179 54.6016H3.63281C1.62653 54.6016 0 56.1232 0 58C0 59.8768 1.62653 61.3984 3.63281 61.3984H8.46179C9.32301 73.5279 14.7812 84.8207 24.0555 93.4967C33.3298 102.172 45.4014 107.279 58.3674 108.084V112.602C58.3674 114.478 59.994 116 62.0002 116C64.0065 116 65.6331 114.478 65.6331 112.602V108.084C78.599 107.278 90.6706 102.172 99.945 93.4967C109.219 84.8207 114.677 73.5279 115.539 61.3984H120.367C122.373 61.3984 124 59.8768 124 58C124 56.1232 122.373 54.6016 120.367 54.6016ZM65.6328 101.27V97.0009C65.6328 95.1241 64.0063 93.6025 62 93.6025C59.9937 93.6025 58.3672 95.1241 58.3672 97.0009V101.27C35.6747 99.6184 17.5114 82.6269 15.7456 61.3984H20.3091C22.3154 61.3984 23.9419 59.8768 23.9419 58C23.9419 56.1232 22.3154 54.6016 20.3091 54.6016H15.7456C17.5114 33.3731 35.6747 16.3816 58.3672 14.7297V18.9991C58.3672 20.8759 59.9937 22.3975 62 22.3975C64.0063 22.3975 65.6328 20.8759 65.6328 18.9991V14.7297C88.3253 16.3816 106.489 33.3731 108.254 54.6016H103.691C101.685 54.6016 100.058 56.1232 100.058 58C100.058 59.8768 101.685 61.3984 103.691 61.3984H108.254C106.489 82.6269 88.3253 99.6184 65.6328 101.27Z" fill="black"/>
</g>
<defs>
<clipPath id="clip0_9_72">
<rect width="124" height="116" fill="white"/>
</clipPath>
</defs>
</svg>
