<svg width="86" height="82" viewBox="0 0 86 82" fill="none" xmlns="http://www.w3.org/2000/svg">
<path d="M83.6811 33.9709C83.6791 33.969 83.6771 33.967 83.6751 33.9651L48.594 -0.706909C47.0986 -2.18549 45.1106 -3 42.9959 -3C40.8812 -3 38.8931 -2.18613 37.3971 -0.707558L2.33432 33.9469C2.32251 33.9586 2.3107 33.9709 2.29889 33.9826C-0.771793 37.0351 -0.766544 41.9876 2.31398 45.0323C3.72137 46.424 5.58018 47.2301 7.56759 47.3144C7.6483 47.3222 7.72966 47.3261 7.81167 47.3261H9.20988V72.8426C9.20988 77.8918 13.3665 82 18.4764 82H32.2013C33.5923 82 34.7208 80.8852 34.7208 79.5098V59.5049C34.7208 57.2008 36.617 55.3266 38.9482 55.3266H47.0435C49.3748 55.3266 51.271 57.2008 51.271 59.5049V79.5098C51.271 80.8852 52.3988 82 53.7905 82H67.5154C72.6253 82 76.7819 77.8918 76.7819 72.8426V47.3261H78.0784C80.1924 47.3261 82.1805 46.5122 83.6771 45.0336C86.7609 41.9837 86.7622 37.0227 83.6811 33.9709Z" fill="black"/>
</svg>
