<svg width="95" height="91" viewBox="0 0 95 91" fill="none" xmlns="http://www.w3.org/2000/svg">
<path d="M93.3094 23.9344L79.9344 11.0594C79.2656 10.4156 78.5969 10.0938 77.5938 10.0938H62.2125L53.1844 1.40312C52.5156 0.759375 51.8469 0.4375 50.8438 0.4375H4.03125C2.025 0.4375 0.6875 1.725 0.6875 3.65625V77.6875C0.6875 79.6188 2.025 80.9062 4.03125 80.9062H27.4375V87.3438C27.4375 89.275 28.775 90.5625 30.7812 90.5625H90.9688C92.975 90.5625 94.3125 89.275 94.3125 87.3438V26.1875C94.3125 25.2219 93.9781 24.5781 93.3094 23.9344ZM86.2875 26.1875H77.5938V17.8188L86.2875 26.1875ZM17.4062 51.9375H27.4375V55.1562H17.4062V51.9375ZM17.4062 42.2812H27.4375V45.5H17.4062V42.2812ZM27.4375 35.8438H17.4062V32.625H27.4375V35.8438ZM17.4062 61.5938H27.4375V64.8125H17.4062V61.5938ZM27.4375 13.3125V26.1875H14.0625C12.0562 26.1875 10.7188 27.475 10.7188 29.4062V68.0312C10.7188 69.9625 12.0562 71.25 14.0625 71.25H27.4375V74.4688H7.375V6.875H49.5063L52.85 10.0938H30.7812C28.775 10.0938 27.4375 11.3813 27.4375 13.3125ZM87.625 84.125H34.125V16.5312H70.9062V29.4062C70.9062 31.3375 72.2438 32.625 74.25 32.625H87.625V84.125Z" fill="black"/>
<path d="M37.4688 39.0625V77.6875C37.4688 79.6188 38.8062 80.9062 40.8125 80.9062H80.9375C82.9437 80.9062 84.2812 79.6188 84.2812 77.6875V39.0625C84.2812 37.1312 82.9437 35.8438 80.9375 35.8438H40.8125C38.8062 35.8438 37.4688 37.1312 37.4688 39.0625ZM57.5312 64.8125V61.5938H64.2188V64.8125H57.5312ZM64.2188 71.25V74.4688H57.5312V71.25H64.2188ZM44.1562 61.5938H50.8438V64.8125H44.1562V61.5938ZM70.9062 61.5938H77.5938V64.8125H70.9062V61.5938ZM77.5938 55.1562H70.9062V51.9375H77.5938V55.1562ZM64.2188 55.1562H57.5312V51.9375H64.2188V55.1562ZM50.8438 55.1562H44.1562V51.9375H50.8438V55.1562ZM44.1562 71.25H50.8438V74.4688H44.1562V71.25ZM77.5938 74.4688H70.9062V71.25H77.5938V74.4688ZM77.5938 42.2812V45.5H70.9062V42.2812H77.5938ZM64.2188 42.2812V45.5H57.5312V42.2812H64.2188ZM44.1562 42.2812H50.8438V45.5H44.1562V42.2812Z" fill="black"/>
</svg>
